<svg width="168" height="64" viewBox="0 0 168 64" fill="none" xmlns="http://www.w3.org/2000/svg">
<g filter="url(#filter0_ig_891_135)">
<path d="M14.5895 49.9883H16.9494C17.6547 49.9883 18.2515 49.9069 18.7398 49.7442C19.2823 49.5814 19.7434 49.2559 20.1232 48.7676C20.5572 48.2794 20.9641 47.5741 21.3438 46.6518C21.7236 45.6753 22.1847 44.3732 22.7273 42.7457C23.2155 41.1181 23.541 39.8161 23.7038 38.8395C23.8666 37.863 23.8937 37.1306 23.7852 36.6424C23.6767 36.1541 23.4054 35.8557 22.9714 35.7472C22.5374 35.5844 21.9677 35.5031 21.2625 35.5031H18.9025L14.5895 49.9883ZM11.4971 24.8426L24.7617 24.924C25.3042 24.924 25.7654 24.8697 26.1451 24.7612C26.5791 24.5985 26.9589 24.3272 27.2844 23.9474C27.6642 23.5134 28.0168 22.9167 28.3423 22.1571C28.6678 21.3976 29.0205 20.3939 29.4002 19.1462C30.0513 18.3866 30.2954 17.5186 30.1326 16.5421C30.4039 15.1315 30.3768 14.2092 30.0513 13.7752C29.78 13.287 29.1832 13.0428 28.2609 13.0428H28.0168C27.9083 13.0428 27.7456 13.0428 27.5285 13.0428C27.3115 12.9886 26.7961 12.9615 25.9824 12.9615C25.2228 12.9072 24.0293 12.8801 22.4018 12.8801C20.7742 12.8801 18.5227 12.8801 15.6474 12.8801L18.8211 2.46373H33.5505C37.4566 2.46373 39.9522 3.46739 41.0372 5.47471C42.1765 7.48202 42.1765 10.4387 41.0372 14.3449L39.4911 19.3903C38.84 21.6146 37.8093 23.7033 36.3987 25.6564C34.9882 27.6094 32.9266 29.0471 30.214 29.9694L30.1326 30.1321C34.1473 30.9459 35.3137 34.2281 33.6319 39.9788L30.9464 48.6862C29.7529 52.5924 27.9897 55.5491 25.6569 57.5564C23.3783 59.5637 20.2859 60.5674 16.3798 60.5674H1.32494L11.4971 24.8426ZM53.7143 39.7347H58.597L64.619 12.2291H64.5376L53.7143 39.7347ZM34.8347 60.5674L60.7128 2.46373H74.1401L65.0258 60.5674H54.6095L56.4812 50.3138H49.4827L45.4138 60.5674H34.8347ZM96.1083 19.9599L97.1662 16.7048C98.0885 13.504 97.5731 11.9035 95.62 11.9035C94.5892 11.9035 93.7483 12.2833 93.0973 13.0428C92.4463 13.7481 91.8766 14.9688 91.3884 16.7048C90.8459 18.3866 90.7645 19.8514 91.1442 21.0992C91.5783 22.2928 92.2022 23.4592 93.0159 24.5985C93.884 25.6835 94.8062 26.8228 95.7828 28.0163C96.8136 29.1556 97.6816 30.539 98.3869 32.1666C99.0921 33.7399 99.499 35.6387 99.6075 37.863C99.716 40.0331 99.3091 42.6914 98.3869 45.838C97.4646 48.8761 96.488 51.426 95.4573 53.4875C94.4265 55.4948 93.2058 57.1224 91.7953 58.3702C90.439 59.5637 88.8385 60.4046 86.994 60.8929C85.2037 61.4354 83.0879 61.7067 80.6465 61.7067H79.1817L82.9251 51.0462C84.3357 51.2632 85.4207 51.0191 86.1802 50.3138C86.9397 49.5543 87.6179 48.2251 88.2147 46.3263C88.8114 44.319 88.9199 42.6372 88.5402 41.2809C88.1604 39.8703 87.5365 38.5954 86.6685 37.4561C85.8547 36.3168 84.9324 35.1776 83.9016 34.0383C82.8709 32.8447 82.0028 31.4613 81.2976 29.888C80.5923 28.3147 80.1854 26.443 80.0769 24.2729C79.9684 22.1029 80.4024 19.3903 81.3789 16.1352C82.1927 13.5311 83.0879 11.3068 84.0644 9.46221C85.0952 7.5634 86.2887 6.01722 87.645 4.82368C89.0013 3.63015 90.5746 2.76212 92.3649 2.2196C94.2095 1.62283 96.3524 1.32445 98.7937 1.32445C103.08 1.32445 105.955 2.38236 107.42 4.49818C108.885 6.614 108.857 10.2489 107.338 15.4028L105.955 19.9599H96.1083ZM117.161 2.46373H137.912L134.657 13.0428H123.997L120.497 24.924H130.67L127.415 35.5031H117.242L112.929 49.9883H123.59L120.416 60.5674H99.6647L117.161 2.46373ZM153.085 19.9599L154.143 16.7048C155.066 13.504 154.55 11.9035 152.597 11.9035C151.566 11.9035 150.725 12.2833 150.074 13.0428C149.423 13.7481 148.854 14.9688 148.365 16.7048C147.823 18.3866 147.742 19.8514 148.121 21.0992C148.555 22.2928 149.179 23.4592 149.993 24.5985C150.861 25.6835 151.783 26.8228 152.76 28.0163C153.791 29.1556 154.659 30.539 155.364 32.1666C156.069 33.7399 156.476 35.6387 156.585 37.863C156.693 40.0331 156.286 42.6914 155.364 45.838C154.442 48.8761 153.465 51.426 152.434 53.4875C151.404 55.4948 150.183 57.1224 148.772 58.3702C147.416 59.5637 145.816 60.4046 143.971 60.8929C142.181 61.4354 140.065 61.7067 137.624 61.7067H136.159L139.902 51.0462C141.313 51.2632 142.398 51.0191 143.157 50.3138C143.917 49.5543 144.595 48.2251 145.192 46.3263C145.788 44.319 145.897 42.6372 145.517 41.2809C145.137 39.8703 144.514 38.5954 143.646 37.4561C142.832 36.3168 141.909 35.1776 140.879 34.0383C139.848 32.8447 138.98 31.4613 138.275 29.888C137.569 28.3147 137.162 26.443 137.054 24.2729C136.945 22.1029 137.379 19.3903 138.356 16.1352C139.17 13.5311 140.065 11.3068 141.041 9.46221C142.072 7.5634 143.266 6.01722 144.622 4.82368C145.978 3.63015 147.552 2.76212 149.342 2.2196C151.187 1.62283 153.329 1.32445 155.771 1.32445C160.057 1.32445 162.932 2.38236 164.397 4.49818C165.862 6.614 165.835 10.2489 164.315 15.4028L162.932 19.9599H153.085Z" fill="url(#paint0_linear_891_135)"/>
</g>
<defs>
<filter id="filter0_ig_891_135" x="2.12193e-05" y="-0.000711203" width="167.919" height="67.0075" filterUnits="userSpaceOnUse" color-interpolation-filters="sRGB">
<feFlood flood-opacity="0" result="BackgroundImageFix"/>
<feBlend mode="normal" in="SourceGraphic" in2="BackgroundImageFix" result="shape"/>
<feColorMatrix in="SourceAlpha" type="matrix" values="0 0 0 0 0 0 0 0 0 0 0 0 0 0 0 0 0 0 127 0" result="hardAlpha"/>
<feOffset dy="5.29972"/>
<feGaussianBlur stdDeviation="2.64986"/>
<feComposite in2="hardAlpha" operator="arithmetic" k2="-1" k3="1"/>
<feColorMatrix type="matrix" values="0 0 0 0 0 0 0 0 0 0 0 0 0 0 0 0 0 0 0.25 0"/>
<feBlend mode="normal" in2="shape" result="effect1_innerShadow_891_135"/>
<feTurbulence type="fractalNoise" baseFrequency="0.7547568678855896 0.7547568678855896" numOctaves="3" seed="9782" />
<feDisplacementMap in="effect1_innerShadow_891_135" scale="2.6498599052429199" xChannelSelector="R" yChannelSelector="G" result="displacedImage" width="100%" height="100%" />
<feMerge result="effect2_texture_891_135">
<feMergeNode in="displacedImage"/>
</feMerge>
</filter>
<linearGradient id="paint0_linear_891_135" x1="57.5717" y1="21.8531" x2="84.4068" y2="44.3511" gradientUnits="userSpaceOnUse">
<stop stop-color="#575757"/>
<stop offset="1" stop-color="#383838"/>
</linearGradient>
</defs>
</svg>
