<svg width="321" height="100" viewBox="0 0 321 100" fill="none" xmlns="http://www.w3.org/2000/svg">
<g opacity="0.62" filter="url(#filter0_f_883_13)">
<mask id="path-1-outside-1_883_13" maskUnits="userSpaceOnUse" x="11.4017" y="11.4883" width="298" height="77" fill="black">
<rect fill="white" x="11.4017" y="11.4883" width="298" height="77"/>
<path d="M28.752 14.4483V85.4883H13.2V14.4483H28.752ZM15.984 85.4883V71.0883H56.784V85.4883H15.984ZM128.833 49.8723C128.833 57.1043 127.361 63.5043 124.417 69.0723C121.473 74.5763 117.377 78.8963 112.129 82.0323C106.881 85.1043 100.801 86.6403 93.8887 86.6403C87.0407 86.6403 80.9927 85.1043 75.7447 82.0323C70.5607 78.8963 66.4967 74.5763 63.5527 69.0723C60.6727 63.5683 59.2327 57.2003 59.2327 49.9683C59.2327 42.7363 60.7047 36.3683 63.6487 30.8643C66.5927 25.2963 70.6567 20.9763 75.8407 17.9043C81.0887 14.7683 87.1367 13.2003 93.9847 13.2003C100.897 13.2003 106.945 14.7683 112.129 17.9043C117.377 20.9763 121.473 25.2643 124.417 30.7683C127.361 36.2723 128.833 42.6403 128.833 49.8723ZM112.417 49.8723C112.417 45.3283 111.681 41.4563 110.209 38.2563C108.737 34.9923 106.625 32.4963 103.873 30.7683C101.185 29.0403 97.9207 28.1763 94.0807 28.1763C90.2407 28.1763 86.9447 29.0403 84.1927 30.7683C81.4407 32.4963 79.3287 34.9923 77.8567 38.2563C76.3847 41.4563 75.6487 45.3283 75.6487 49.8723C75.6487 54.4163 76.3847 58.3203 77.8567 61.5843C79.3287 64.8483 81.4407 67.3443 84.1927 69.0723C86.9447 70.8003 90.2407 71.6643 94.0807 71.6643C97.9207 71.6643 101.185 70.8003 103.873 69.0723C106.625 67.2803 108.737 64.7523 110.209 61.4883C111.681 58.2243 112.417 54.3523 112.417 49.8723ZM171.637 27.8883C167.349 27.8883 163.765 28.8483 160.885 30.7683C158.005 32.6243 155.829 35.2483 154.357 38.6403C152.885 42.0323 152.149 46.0323 152.149 50.6403C152.149 55.3763 152.981 59.3443 154.645 62.5443C156.309 65.7443 158.581 68.1443 161.461 69.7443C164.405 71.2803 167.765 72.0483 171.541 72.0483C174.741 72.0483 177.461 71.6323 179.701 70.8003C181.941 69.9683 183.733 68.8163 185.077 67.3443C186.485 65.8723 187.509 64.2083 188.149 62.3523C188.853 60.4963 189.205 58.5763 189.205 56.5923V50.9283L196.597 58.3203H170.293V44.6883H203.701V85.4883H190.357L189.109 75.7923L190.837 77.2323C189.813 79.0883 188.213 80.7203 186.037 82.1283C183.925 83.5363 181.429 84.6243 178.549 85.3923C175.733 86.1603 172.725 86.5443 169.525 86.5443C162.933 86.5443 157.077 85.0403 151.957 82.0323C146.901 78.9603 142.933 74.7043 140.053 69.2643C137.173 63.8243 135.733 57.4563 135.733 50.1603C135.733 42.9923 137.237 36.6563 140.245 31.1523C143.253 25.5843 147.477 21.2323 152.917 18.0963C158.357 14.8963 164.725 13.2963 172.021 13.2963C177.717 13.2963 182.837 14.3523 187.381 16.4643C191.989 18.5123 195.733 21.4563 198.613 25.2963C201.493 29.0723 203.189 33.5203 203.701 38.6403H187.381C186.485 34.8643 184.565 32.1443 181.621 30.4803C178.677 28.7523 175.349 27.8883 171.637 27.8883ZM232.096 14.4483V85.4883H216.544V14.4483H232.096ZM262.279 85.4883H246.919V14.4483H262.279L297.031 66.8643H292.231V14.4483H307.591V85.4883H292.231L257.479 33.1683H262.279V85.4883Z"/>
</mask>
<path d="M28.752 14.4483V85.4883H13.2V14.4483H28.752ZM15.984 85.4883V71.0883H56.784V85.4883H15.984ZM128.833 49.8723C128.833 57.1043 127.361 63.5043 124.417 69.0723C121.473 74.5763 117.377 78.8963 112.129 82.0323C106.881 85.1043 100.801 86.6403 93.8887 86.6403C87.0407 86.6403 80.9927 85.1043 75.7447 82.0323C70.5607 78.8963 66.4967 74.5763 63.5527 69.0723C60.6727 63.5683 59.2327 57.2003 59.2327 49.9683C59.2327 42.7363 60.7047 36.3683 63.6487 30.8643C66.5927 25.2963 70.6567 20.9763 75.8407 17.9043C81.0887 14.7683 87.1367 13.2003 93.9847 13.2003C100.897 13.2003 106.945 14.7683 112.129 17.9043C117.377 20.9763 121.473 25.2643 124.417 30.7683C127.361 36.2723 128.833 42.6403 128.833 49.8723ZM112.417 49.8723C112.417 45.3283 111.681 41.4563 110.209 38.2563C108.737 34.9923 106.625 32.4963 103.873 30.7683C101.185 29.0403 97.9207 28.1763 94.0807 28.1763C90.2407 28.1763 86.9447 29.0403 84.1927 30.7683C81.4407 32.4963 79.3287 34.9923 77.8567 38.2563C76.3847 41.4563 75.6487 45.3283 75.6487 49.8723C75.6487 54.4163 76.3847 58.3203 77.8567 61.5843C79.3287 64.8483 81.4407 67.3443 84.1927 69.0723C86.9447 70.8003 90.2407 71.6643 94.0807 71.6643C97.9207 71.6643 101.185 70.8003 103.873 69.0723C106.625 67.2803 108.737 64.7523 110.209 61.4883C111.681 58.2243 112.417 54.3523 112.417 49.8723ZM171.637 27.8883C167.349 27.8883 163.765 28.8483 160.885 30.7683C158.005 32.6243 155.829 35.2483 154.357 38.6403C152.885 42.0323 152.149 46.0323 152.149 50.6403C152.149 55.3763 152.981 59.3443 154.645 62.5443C156.309 65.7443 158.581 68.1443 161.461 69.7443C164.405 71.2803 167.765 72.0483 171.541 72.0483C174.741 72.0483 177.461 71.6323 179.701 70.8003C181.941 69.9683 183.733 68.8163 185.077 67.3443C186.485 65.8723 187.509 64.2083 188.149 62.3523C188.853 60.4963 189.205 58.5763 189.205 56.5923V50.9283L196.597 58.3203H170.293V44.6883H203.701V85.4883H190.357L189.109 75.7923L190.837 77.2323C189.813 79.0883 188.213 80.7203 186.037 82.1283C183.925 83.5363 181.429 84.6243 178.549 85.3923C175.733 86.1603 172.725 86.5443 169.525 86.5443C162.933 86.5443 157.077 85.0403 151.957 82.0323C146.901 78.9603 142.933 74.7043 140.053 69.2643C137.173 63.8243 135.733 57.4563 135.733 50.1603C135.733 42.9923 137.237 36.6563 140.245 31.1523C143.253 25.5843 147.477 21.2323 152.917 18.0963C158.357 14.8963 164.725 13.2963 172.021 13.2963C177.717 13.2963 182.837 14.3523 187.381 16.4643C191.989 18.5123 195.733 21.4563 198.613 25.2963C201.493 29.0723 203.189 33.5203 203.701 38.6403H187.381C186.485 34.8643 184.565 32.1443 181.621 30.4803C178.677 28.7523 175.349 27.8883 171.637 27.8883ZM232.096 14.4483V85.4883H216.544V14.4483H232.096ZM262.279 85.4883H246.919V14.4483H262.279L297.031 66.8643H292.231V14.4483H307.591V85.4883H292.231L257.479 33.1683H262.279V85.4883Z" fill="white"/>
<path d="M28.752 14.4483H29.752V13.4483H28.752V14.4483ZM28.752 85.4883V86.4883H29.752V85.4883H28.752ZM13.2 85.4883H12.2V86.4883H13.2V85.4883ZM13.2 14.4483V13.4483H12.2V14.4483H13.2ZM15.984 85.4883H14.984V86.4883H15.984V85.4883ZM15.984 71.0883V70.0883H14.984V71.0883H15.984ZM56.784 71.0883H57.784V70.0883H56.784V71.0883ZM56.784 85.4883V86.4883H57.784V85.4883H56.784ZM28.752 14.4483H27.752V85.4883H28.752H29.752V14.4483H28.752ZM28.752 85.4883V84.4883H13.2V85.4883V86.4883H28.752V85.4883ZM13.2 85.4883H14.2V14.4483H13.2H12.2V85.4883H13.2ZM13.2 14.4483V15.4483H28.752V14.4483V13.4483H13.2V14.4483ZM15.984 85.4883H16.984V71.0883H15.984H14.984V85.4883H15.984ZM15.984 71.0883V72.0883H56.784V71.0883V70.0883H15.984V71.0883ZM56.784 71.0883H55.784V85.4883H56.784H57.784V71.0883H56.784ZM56.784 85.4883V84.4883H15.984V85.4883V86.4883H56.784V85.4883ZM124.417 69.0723L125.299 69.5439L125.301 69.5397L124.417 69.0723ZM112.129 82.0323L112.634 82.8953L112.642 82.8907L112.129 82.0323ZM75.7447 82.0323L75.2271 82.8879L75.2333 82.8916L75.2396 82.8953L75.7447 82.0323ZM63.5527 69.0723L62.6667 69.5359L62.6709 69.5439L63.5527 69.0723ZM63.6487 30.8643L64.5305 31.3359L64.5328 31.3317L63.6487 30.8643ZM75.8407 17.9043L76.3505 18.7646L76.3537 18.7627L75.8407 17.9043ZM112.129 17.9043L111.611 18.7599L111.617 18.7636L111.624 18.7673L112.129 17.9043ZM124.417 30.7683L125.299 30.2966L124.417 30.7683ZM110.209 38.2563L109.297 38.6674L109.3 38.6742L110.209 38.2563ZM103.873 30.7683L103.332 31.6095L103.341 31.6152L103.873 30.7683ZM84.1927 30.7683L83.661 29.9214L84.1927 30.7683ZM77.8567 38.2563L78.7653 38.6742L78.7683 38.6674L77.8567 38.2563ZM77.8567 61.5843L76.9451 61.9954L77.8567 61.5843ZM84.1927 69.0723L83.661 69.9192L84.1927 69.0723ZM103.873 69.0723L104.414 69.9135L104.418 69.9103L103.873 69.0723ZM110.209 61.4883L111.12 61.8994L110.209 61.4883ZM128.833 49.8723H127.833C127.833 56.9657 126.39 63.201 123.533 68.6049L124.417 69.0723L125.301 69.5397C128.332 63.8076 129.833 57.2429 129.833 49.8723H128.833ZM124.417 69.0723L123.535 68.6006C120.675 73.9482 116.705 78.133 111.616 81.1739L112.129 82.0323L112.642 82.8907C118.049 79.6596 122.271 75.2044 125.299 69.5439L124.417 69.0723ZM112.129 82.0323L111.624 81.1693C106.549 84.1398 100.648 85.6403 93.8887 85.6403V86.6403V87.6403C100.954 87.6403 107.213 86.0687 112.634 82.8953L112.129 82.0323ZM93.8887 86.6403V85.6403C87.1954 85.6403 81.3261 84.1407 76.2499 81.1693L75.7447 82.0323L75.2396 82.8953C80.6594 86.0679 86.886 87.6403 93.8887 87.6403V86.6403ZM75.7447 82.0323L76.2623 81.1767C71.2368 78.1365 67.2965 73.9513 64.4345 68.6006L63.5527 69.0723L62.6709 69.5439C65.697 75.2013 69.8847 79.656 75.2271 82.8879L75.7447 82.0323ZM63.5527 69.0723L64.4388 68.6087C61.6451 63.2696 60.2327 57.0654 60.2327 49.9683H59.2327H58.2327C58.2327 57.3352 59.7004 63.867 62.6667 69.5359L63.5527 69.0723ZM59.2327 49.9683H60.2327C60.2327 42.8746 61.6756 36.6733 64.5305 31.3359L63.6487 30.8643L62.7669 30.3926C59.7338 36.0632 58.2327 42.598 58.2327 49.9683H59.2327ZM63.6487 30.8643L64.5328 31.3317C67.3947 25.9189 71.3325 21.7383 76.3505 18.7646L75.8407 17.9043L75.3309 17.044C69.981 20.2143 65.7908 24.6736 62.7647 30.3969L63.6487 30.8643ZM75.8407 17.9043L76.3537 18.7627C81.4286 15.7301 87.2951 14.2003 93.9847 14.2003V13.2003V12.2003C86.9783 12.2003 80.7489 13.8064 75.3278 17.0459L75.8407 17.9043ZM93.9847 13.2003V14.2003C100.74 14.2003 106.604 15.7311 111.611 18.7599L112.129 17.9043L112.646 17.0487C107.285 13.8055 101.053 12.2003 93.9847 12.2003V13.2003ZM112.129 17.9043L111.624 18.7673C116.708 21.7435 120.676 25.8941 123.535 31.2399L124.417 30.7683L125.299 30.2966C122.27 24.6345 118.046 20.209 112.634 17.0413L112.129 17.9043ZM124.417 30.7683L123.535 31.2399C126.39 36.5773 127.833 42.7786 127.833 49.8723H128.833H129.833C129.833 42.502 128.332 35.9672 125.299 30.2966L124.417 30.7683ZM112.417 49.8723H113.417C113.417 45.2242 112.664 41.2016 111.117 37.8384L110.209 38.2563L109.3 38.6742C110.697 41.7109 111.417 45.4323 111.417 49.8723H112.417ZM110.209 38.2563L111.12 37.8452C109.576 34.4207 107.34 31.7647 104.405 29.9214L103.873 30.7683L103.341 31.6152C105.909 33.2279 107.898 35.5638 109.297 38.6674L110.209 38.2563ZM103.873 30.7683L104.413 29.9271C101.534 28.0761 98.0734 27.1763 94.0807 27.1763V28.1763V29.1763C97.7681 29.1763 100.835 30.0044 103.332 31.6095L103.873 30.7683ZM94.0807 28.1763V27.1763C90.0873 27.1763 86.5993 28.0764 83.661 29.9214L84.1927 30.7683L84.7245 31.6152C87.2902 30.0042 90.3942 29.1763 94.0807 29.1763V28.1763ZM84.1927 30.7683L83.661 29.9214C80.7254 31.7647 78.4895 34.4207 76.9451 37.8452L77.8567 38.2563L78.7683 38.6674C80.168 35.5638 82.1561 33.2279 84.7245 31.6152L84.1927 30.7683ZM77.8567 38.2563L76.9482 37.8384C75.4011 41.2016 74.6487 45.2242 74.6487 49.8723H75.6487H76.6487C76.6487 45.4323 77.3683 41.7109 78.7652 38.6742L77.8567 38.2563ZM75.6487 49.8723H74.6487C74.6487 54.5212 75.4014 58.5723 76.9451 61.9954L77.8567 61.5843L78.7683 61.1732C77.368 58.0682 76.6487 54.3114 76.6487 49.8723H75.6487ZM77.8567 61.5843L76.9451 61.9954C78.4895 65.4198 80.7254 68.0759 83.661 69.9192L84.1927 69.0723L84.7245 68.2254C82.1561 66.6127 80.168 64.2767 78.7683 61.1732L77.8567 61.5843ZM84.1927 69.0723L83.661 69.9192C86.5993 71.7642 90.0873 72.6643 94.0807 72.6643V71.6643V70.6643C90.3942 70.6643 87.2902 69.8364 84.7245 68.2254L84.1927 69.0723ZM94.0807 71.6643V72.6643C98.0734 72.6643 101.534 71.7644 104.413 69.9135L103.873 69.0723L103.332 68.2311C100.835 69.8361 97.7681 70.6643 94.0807 70.6643V71.6643ZM103.873 69.0723L104.418 69.9103C107.345 68.0045 109.577 65.3214 111.12 61.8994L110.209 61.4883L109.297 61.0772C107.896 64.1832 105.904 66.556 103.327 68.2343L103.873 69.0723ZM110.209 61.4883L111.12 61.8994C112.663 58.478 113.417 54.4595 113.417 49.8723H112.417H111.417C111.417 54.2451 110.698 57.9706 109.297 61.0772L110.209 61.4883ZM160.885 30.7683L161.426 31.6088L161.433 31.6046L161.439 31.6003L160.885 30.7683ZM154.357 38.6403L153.439 38.2422L154.357 38.6403ZM161.461 69.7443L160.975 70.6184L160.987 70.6248L160.998 70.6309L161.461 69.7443ZM179.701 70.8003L179.353 69.8629L179.701 70.8003ZM185.077 67.3443L184.354 66.6531L184.346 66.6614L184.338 66.67L185.077 67.3443ZM188.149 62.3523L187.214 61.9976L187.208 62.0119L187.203 62.0263L188.149 62.3523ZM189.205 50.9283L189.912 50.2212L188.205 48.5141V50.9283H189.205ZM196.597 58.3203V59.3203H199.011L197.304 57.6132L196.597 58.3203ZM170.293 58.3203H169.293V59.3203H170.293V58.3203ZM170.293 44.6883V43.6883H169.293V44.6883H170.293ZM203.701 44.6883H204.701V43.6883H203.701V44.6883ZM203.701 85.4883V86.4883H204.701V85.4883H203.701ZM190.357 85.4883L189.365 85.6159L189.477 86.4883H190.357V85.4883ZM189.109 75.7923L189.749 75.0241L187.792 73.393L188.117 75.9199L189.109 75.7923ZM190.837 77.2323L191.712 77.7154L192.111 76.9925L191.477 76.4641L190.837 77.2323ZM186.037 82.1283L185.493 81.2886L185.482 81.2962L186.037 82.1283ZM178.549 85.3923L178.291 84.426L178.286 84.4275L178.549 85.3923ZM151.957 82.0323L151.437 82.8869L151.444 82.8907L151.45 82.8945L151.957 82.0323ZM140.053 69.2643L140.937 68.7964L140.053 69.2643ZM140.245 31.1523L141.122 31.6319L141.125 31.6276L140.245 31.1523ZM152.917 18.0963L153.416 18.9627L153.424 18.9582L152.917 18.0963ZM187.381 16.4643L186.959 17.3711L186.967 17.3747L186.975 17.3781L187.381 16.4643ZM198.613 25.2963L197.813 25.8963L197.818 25.9027L198.613 25.2963ZM203.701 38.6403V39.6403H204.806L204.696 38.5408L203.701 38.6403ZM187.381 38.6403L186.408 38.8712L186.59 39.6403H187.381V38.6403ZM181.621 30.4803L181.115 31.3427L181.122 31.3468L181.129 31.3508L181.621 30.4803ZM171.637 27.8883V26.8883C167.199 26.8883 163.41 27.8831 160.33 29.9362L160.885 30.7683L161.439 31.6003C164.12 29.8135 167.499 28.8883 171.637 28.8883V27.8883ZM160.885 30.7683L160.343 29.9277C157.284 31.8994 154.984 34.6838 153.439 38.2422L154.357 38.6403L155.274 39.0384C156.674 35.8127 158.726 33.3492 161.426 31.6088L160.885 30.7683ZM154.357 38.6403L153.439 38.2422C151.901 41.7867 151.149 45.928 151.149 50.6403H152.149H153.149C153.149 46.1366 153.868 42.2779 155.274 39.0384L154.357 38.6403ZM152.149 50.6403H151.149C151.149 55.4884 152 59.6256 153.758 63.0056L154.645 62.5443L155.532 62.0829C153.962 59.063 153.149 55.2641 153.149 50.6403H152.149ZM154.645 62.5443L153.758 63.0056C155.503 66.3625 157.907 68.9142 160.975 70.6184L161.461 69.7443L161.946 68.8701C159.254 67.3744 157.114 65.1261 155.532 62.0829L154.645 62.5443ZM161.461 69.7443L160.998 70.6309C164.104 72.251 167.626 73.0483 171.541 73.0483V72.0483V71.0483C167.904 71.0483 164.706 70.3095 161.923 68.8577L161.461 69.7443ZM171.541 72.0483V73.0483C174.822 73.0483 177.667 72.6225 180.049 71.7377L179.701 70.8003L179.353 69.8629C177.255 70.6421 174.66 71.0483 171.541 71.0483V72.0483ZM179.701 70.8003L180.049 71.7377C182.409 70.8612 184.345 69.6292 185.815 68.0185L185.077 67.3443L184.338 66.67C183.121 68.0033 181.473 69.0753 179.353 69.8629L179.701 70.8003ZM185.077 67.3443L185.799 68.0355C187.303 66.4633 188.405 64.6758 189.094 62.6783L188.149 62.3523L187.203 62.0263C186.612 63.7407 185.666 65.2813 184.354 66.6531L185.077 67.3443ZM188.149 62.3523L189.084 62.7069C189.831 60.7377 190.205 58.6975 190.205 56.5923H189.205H188.205C188.205 58.455 187.875 60.2549 187.214 61.9976L188.149 62.3523ZM189.205 56.5923H190.205V50.9283H189.205H188.205V56.5923H189.205ZM189.205 50.9283L188.498 51.6354L195.89 59.0274L196.597 58.3203L197.304 57.6132L189.912 50.2212L189.205 50.9283ZM196.597 58.3203V57.3203H170.293V58.3203V59.3203H196.597V58.3203ZM170.293 58.3203H171.293V44.6883H170.293H169.293V58.3203H170.293ZM170.293 44.6883V45.6883H203.701V44.6883V43.6883H170.293V44.6883ZM203.701 44.6883H202.701V85.4883H203.701H204.701V44.6883H203.701ZM203.701 85.4883V84.4883H190.357V85.4883V86.4883H203.701V85.4883ZM190.357 85.4883L191.349 85.3606L190.101 75.6646L189.109 75.7923L188.117 75.9199L189.365 85.6159L190.357 85.4883ZM189.109 75.7923L188.469 76.5605L190.197 78.0005L190.837 77.2323L191.477 76.4641L189.749 75.0241L189.109 75.7923ZM190.837 77.2323L189.961 76.7492C189.033 78.432 187.562 79.9506 185.493 81.2887L186.037 82.1283L186.58 82.9678C188.864 81.49 190.593 79.7446 191.712 77.7154L190.837 77.2323ZM186.037 82.1283L185.482 81.2962C183.475 82.634 181.083 83.6814 178.291 84.426L178.549 85.3923L178.806 86.3585C181.774 85.5671 184.374 84.4385 186.591 82.9603L186.037 82.1283ZM178.549 85.3923L178.286 84.4275C175.563 85.17 172.644 85.5443 169.525 85.5443V86.5443V87.5443C172.805 87.5443 175.902 87.1506 178.812 86.357L178.549 85.3923ZM169.525 86.5443V85.5443C163.091 85.5443 157.413 84.0782 152.463 81.1701L151.957 82.0323L151.45 82.8945C156.74 86.0024 162.775 87.5443 169.525 87.5443V86.5443ZM151.957 82.0323L152.476 81.1777C147.581 78.2032 143.736 74.0837 140.937 68.7964L140.053 69.2643L139.169 69.7322C142.13 75.3249 146.221 79.7173 151.437 82.8869L151.957 82.0323ZM140.053 69.2643L140.937 68.7964C138.146 63.525 136.733 57.3233 136.733 50.1603H135.733H134.733C134.733 57.5892 136.2 64.1235 139.169 69.7322L140.053 69.2643ZM135.733 50.1603H136.733C136.733 43.1357 138.205 36.9689 141.122 31.6318L140.245 31.1523L139.367 30.6727C136.268 36.3436 134.733 42.8489 134.733 50.1603H135.733ZM140.245 31.1523L141.125 31.6276C144.045 26.2213 148.138 22.0053 153.416 18.9626L152.917 18.0963L152.417 17.2299C146.815 20.4593 142.46 24.9472 139.365 30.677L140.245 31.1523ZM152.917 18.0963L153.424 18.9582C158.687 15.8619 164.875 14.2963 172.021 14.2963V13.2963V12.2963C164.575 12.2963 158.026 13.9306 152.41 17.2343L152.917 18.0963ZM172.021 13.2963V14.2963C177.591 14.2963 182.564 15.3284 186.959 17.3711L187.381 16.4643L187.802 15.5574C183.109 13.3762 177.842 12.2963 172.021 12.2963V13.2963ZM187.381 16.4643L186.975 17.3781C191.435 19.3604 195.04 22.1997 197.813 25.8963L198.613 25.2963L199.413 24.6963C196.425 20.7128 192.543 17.6641 187.787 15.5505L187.381 16.4643ZM198.613 25.2963L197.818 25.9027C200.576 29.5193 202.211 33.788 202.706 38.7398L203.701 38.6403L204.696 38.5408C204.167 33.2525 202.409 28.6253 199.408 24.6898L198.613 25.2963ZM203.701 38.6403V37.6403H187.381V38.6403V39.6403H203.701V38.6403ZM187.381 38.6403L188.354 38.4094C187.404 34.4064 185.336 31.4314 182.113 29.6097L181.621 30.4803L181.129 31.3508C183.794 32.8571 185.566 35.3221 186.408 38.8712L187.381 38.6403ZM181.621 30.4803L182.127 29.6179C179.016 27.792 175.511 26.8883 171.637 26.8883V27.8883V28.8883C175.187 28.8883 178.337 29.7126 181.115 31.3427L181.621 30.4803ZM232.096 14.4483H233.096V13.4483H232.096V14.4483ZM232.096 85.4883V86.4883H233.096V85.4883H232.096ZM216.544 85.4883H215.544V86.4883H216.544V85.4883ZM216.544 14.4483V13.4483H215.544V14.4483H216.544ZM232.096 14.4483H231.096V85.4883H232.096H233.096V14.4483H232.096ZM232.096 85.4883V84.4883H216.544V85.4883V86.4883H232.096V85.4883ZM216.544 85.4883H217.544V14.4483H216.544H215.544V85.4883H216.544ZM216.544 14.4483V15.4483H232.096V14.4483V13.4483H216.544V14.4483ZM262.279 85.4883V86.4883H263.279V85.4883H262.279ZM246.919 85.4883H245.919V86.4883H246.919V85.4883ZM246.919 14.4483V13.4483H245.919V14.4483H246.919ZM262.279 14.4483L263.112 13.8957L262.816 13.4483H262.279V14.4483ZM297.031 66.8643V67.8643H298.894L297.864 66.3117L297.031 66.8643ZM292.231 66.8643H291.231V67.8643H292.231V66.8643ZM292.231 14.4483V13.4483H291.231V14.4483H292.231ZM307.591 14.4483H308.591V13.4483H307.591V14.4483ZM307.591 85.4883V86.4883H308.591V85.4883H307.591ZM292.231 85.4883L291.398 86.0416L291.694 86.4883H292.231V85.4883ZM257.479 33.1683V32.1683H255.614L256.646 33.7216L257.479 33.1683ZM262.279 33.1683H263.279V32.1683H262.279V33.1683ZM262.279 85.4883V84.4883H246.919V85.4883V86.4883H262.279V85.4883ZM246.919 85.4883H247.919V14.4483H246.919H245.919V85.4883H246.919ZM246.919 14.4483V15.4483H262.279V14.4483V13.4483H246.919V14.4483ZM262.279 14.4483L261.445 15.0009L296.197 67.4169L297.031 66.8643L297.864 66.3117L263.112 13.8957L262.279 14.4483ZM297.031 66.8643V65.8643H292.231V66.8643V67.8643H297.031V66.8643ZM292.231 66.8643H293.231V14.4483H292.231H291.231V66.8643H292.231ZM292.231 14.4483V15.4483H307.591V14.4483V13.4483H292.231V14.4483ZM307.591 14.4483H306.591V85.4883H307.591H308.591V14.4483H307.591ZM307.591 85.4883V84.4883H292.231V85.4883V86.4883H307.591V85.4883ZM292.231 85.4883L293.064 84.935L258.312 32.615L257.479 33.1683L256.646 33.7216L291.398 86.0416L292.231 85.4883ZM257.479 33.1683V34.1683H262.279V33.1683V32.1683H257.479V33.1683ZM262.279 33.1683H261.279V85.4883H262.279H263.279V33.1683H262.279Z" fill="white" mask="url(#path-1-outside-1_883_13)"/>
</g>
<defs>
<filter id="filter0_f_883_13" x="1.23978e-05" y="0.000195503" width="320.791" height="99.8404" filterUnits="userSpaceOnUse" color-interpolation-filters="sRGB">
<feFlood flood-opacity="0" result="BackgroundImageFix"/>
<feBlend mode="normal" in="SourceGraphic" in2="BackgroundImageFix" result="shape"/>
<feGaussianBlur stdDeviation="6.1" result="effect1_foregroundBlur_883_13"/>
</filter>
</defs>
</svg>
