<svg width="311" height="130" viewBox="0 0 311 130" fill="none" xmlns="http://www.w3.org/2000/svg">
<g filter="url(#filter0_gn_883_12)">
<mask id="path-1-outside-1_883_12" maskUnits="userSpaceOnUse" x="6.20172" y="28" width="298" height="77" fill="black">
<rect fill="white" x="6.20172" y="28" width="298" height="77"/>
<path d="M23.552 30.96V102H7.99997V30.96H23.552ZM10.784 102V87.6H51.584V102H10.784ZM123.633 66.384C123.633 73.616 122.161 80.016 119.217 85.584C116.273 91.088 112.177 95.408 106.929 98.544C101.681 101.616 95.6007 103.152 88.6887 103.152C81.8407 103.152 75.7927 101.616 70.5447 98.544C65.3607 95.408 61.2967 91.088 58.3527 85.584C55.4727 80.08 54.0327 73.712 54.0327 66.48C54.0327 59.248 55.5047 52.88 58.4487 47.376C61.3927 41.808 65.4567 37.488 70.6407 34.416C75.8887 31.28 81.9367 29.712 88.7847 29.712C95.6967 29.712 101.745 31.28 106.929 34.416C112.177 37.488 116.273 41.776 119.217 47.28C122.161 52.784 123.633 59.152 123.633 66.384ZM107.217 66.384C107.217 61.84 106.481 57.968 105.009 54.768C103.537 51.504 101.425 49.008 98.6727 47.28C95.9847 45.552 92.7207 44.688 88.8807 44.688C85.0407 44.688 81.7447 45.552 78.9927 47.28C76.2407 49.008 74.1287 51.504 72.6567 54.768C71.1847 57.968 70.4487 61.84 70.4487 66.384C70.4487 70.928 71.1847 74.832 72.6567 78.096C74.1287 81.36 76.2407 83.856 78.9927 85.584C81.7447 87.312 85.0407 88.176 88.8807 88.176C92.7207 88.176 95.9847 87.312 98.6727 85.584C101.425 83.792 103.537 81.264 105.009 78C106.481 74.736 107.217 70.864 107.217 66.384ZM166.437 44.4C162.149 44.4 158.565 45.36 155.685 47.28C152.805 49.136 150.629 51.76 149.157 55.152C147.685 58.544 146.949 62.544 146.949 67.152C146.949 71.888 147.781 75.856 149.445 79.056C151.109 82.256 153.381 84.656 156.261 86.256C159.205 87.792 162.565 88.56 166.341 88.56C169.541 88.56 172.261 88.144 174.501 87.312C176.741 86.48 178.533 85.328 179.877 83.856C181.285 82.384 182.309 80.72 182.949 78.864C183.653 77.008 184.005 75.088 184.005 73.104V67.44L191.397 74.832H165.093V61.2H198.501V102H185.157L183.909 92.304L185.637 93.744C184.613 95.6 183.013 97.232 180.837 98.64C178.725 100.048 176.229 101.136 173.349 101.904C170.533 102.672 167.525 103.056 164.325 103.056C157.733 103.056 151.877 101.552 146.757 98.544C141.701 95.472 137.733 91.216 134.853 85.776C131.973 80.336 130.533 73.968 130.533 66.672C130.533 59.504 132.037 53.168 135.045 47.664C138.053 42.096 142.277 37.744 147.717 34.608C153.157 31.408 159.525 29.808 166.821 29.808C172.517 29.808 177.637 30.864 182.181 32.976C186.789 35.024 190.533 37.968 193.413 41.808C196.293 45.584 197.989 50.032 198.501 55.152H182.181C181.285 51.376 179.365 48.656 176.421 46.992C173.477 45.264 170.149 44.4 166.437 44.4ZM226.896 30.96V102H211.344V30.96H226.896ZM257.079 102H241.719V30.96H257.079L291.831 83.376H287.031V30.96H302.391V102H287.031L252.279 49.68H257.079V102Z"/>
</mask>
<path d="M23.552 30.96V102H7.99997V30.96H23.552ZM10.784 102V87.6H51.584V102H10.784ZM123.633 66.384C123.633 73.616 122.161 80.016 119.217 85.584C116.273 91.088 112.177 95.408 106.929 98.544C101.681 101.616 95.6007 103.152 88.6887 103.152C81.8407 103.152 75.7927 101.616 70.5447 98.544C65.3607 95.408 61.2967 91.088 58.3527 85.584C55.4727 80.08 54.0327 73.712 54.0327 66.48C54.0327 59.248 55.5047 52.88 58.4487 47.376C61.3927 41.808 65.4567 37.488 70.6407 34.416C75.8887 31.28 81.9367 29.712 88.7847 29.712C95.6967 29.712 101.745 31.28 106.929 34.416C112.177 37.488 116.273 41.776 119.217 47.28C122.161 52.784 123.633 59.152 123.633 66.384ZM107.217 66.384C107.217 61.84 106.481 57.968 105.009 54.768C103.537 51.504 101.425 49.008 98.6727 47.28C95.9847 45.552 92.7207 44.688 88.8807 44.688C85.0407 44.688 81.7447 45.552 78.9927 47.28C76.2407 49.008 74.1287 51.504 72.6567 54.768C71.1847 57.968 70.4487 61.84 70.4487 66.384C70.4487 70.928 71.1847 74.832 72.6567 78.096C74.1287 81.36 76.2407 83.856 78.9927 85.584C81.7447 87.312 85.0407 88.176 88.8807 88.176C92.7207 88.176 95.9847 87.312 98.6727 85.584C101.425 83.792 103.537 81.264 105.009 78C106.481 74.736 107.217 70.864 107.217 66.384ZM166.437 44.4C162.149 44.4 158.565 45.36 155.685 47.28C152.805 49.136 150.629 51.76 149.157 55.152C147.685 58.544 146.949 62.544 146.949 67.152C146.949 71.888 147.781 75.856 149.445 79.056C151.109 82.256 153.381 84.656 156.261 86.256C159.205 87.792 162.565 88.56 166.341 88.56C169.541 88.56 172.261 88.144 174.501 87.312C176.741 86.48 178.533 85.328 179.877 83.856C181.285 82.384 182.309 80.72 182.949 78.864C183.653 77.008 184.005 75.088 184.005 73.104V67.44L191.397 74.832H165.093V61.2H198.501V102H185.157L183.909 92.304L185.637 93.744C184.613 95.6 183.013 97.232 180.837 98.64C178.725 100.048 176.229 101.136 173.349 101.904C170.533 102.672 167.525 103.056 164.325 103.056C157.733 103.056 151.877 101.552 146.757 98.544C141.701 95.472 137.733 91.216 134.853 85.776C131.973 80.336 130.533 73.968 130.533 66.672C130.533 59.504 132.037 53.168 135.045 47.664C138.053 42.096 142.277 37.744 147.717 34.608C153.157 31.408 159.525 29.808 166.821 29.808C172.517 29.808 177.637 30.864 182.181 32.976C186.789 35.024 190.533 37.968 193.413 41.808C196.293 45.584 197.989 50.032 198.501 55.152H182.181C181.285 51.376 179.365 48.656 176.421 46.992C173.477 45.264 170.149 44.4 166.437 44.4ZM226.896 30.96V102H211.344V30.96H226.896ZM257.079 102H241.719V30.96H257.079L291.831 83.376H287.031V30.96H302.391V102H287.031L252.279 49.68H257.079V102Z" fill="white"/>
<path d="M23.552 30.96H24.552V29.96H23.552V30.96ZM23.552 102V103H24.552V102H23.552ZM7.99997 102H6.99997V103H7.99997V102ZM7.99997 30.96V29.96H6.99997V30.96H7.99997ZM10.784 102H9.78397V103H10.784V102ZM10.784 87.6V86.6H9.78397V87.6H10.784ZM51.584 87.6H52.584V86.6H51.584V87.6ZM51.584 102V103H52.584V102H51.584ZM23.552 30.96H22.552V102H23.552H24.552V30.96H23.552ZM23.552 102V101H7.99997V102V103H23.552V102ZM7.99997 102H8.99997V30.96H7.99997H6.99997V102H7.99997ZM7.99997 30.96V31.96H23.552V30.96V29.96H7.99997V30.96ZM10.784 102H11.784V87.6H10.784H9.78397V102H10.784ZM10.784 87.6V88.6H51.584V87.6V86.6H10.784V87.6ZM51.584 87.6H50.584V102H51.584H52.584V87.6H51.584ZM51.584 102V101H10.784V102V103H51.584V102ZM119.217 85.584L120.099 86.0557L120.101 86.0514L119.217 85.584ZM106.929 98.544L107.434 99.4071L107.442 99.4024L106.929 98.544ZM70.5447 98.544L70.0271 99.3996L70.0333 99.4034L70.0395 99.407L70.5447 98.544ZM58.3527 85.584L57.4667 86.0476L57.4709 86.0556L58.3527 85.584ZM58.4487 47.376L59.3305 47.8477L59.3328 47.8434L58.4487 47.376ZM70.6407 34.416L71.1505 35.2763L71.1537 35.2744L70.6407 34.416ZM106.929 34.416L106.411 35.2716L106.417 35.2754L106.424 35.279L106.929 34.416ZM119.217 47.28L120.099 46.8083L119.217 47.28ZM105.009 54.768L104.097 55.1791L104.1 55.1859L105.009 54.768ZM98.6727 47.28L98.1319 48.1212L98.141 48.1269L98.6727 47.28ZM78.9927 47.28L78.461 46.4331L78.9927 47.28ZM72.6567 54.768L73.5652 55.1859L73.5683 55.1791L72.6567 54.768ZM72.6567 78.096L71.7451 78.5071L72.6567 78.096ZM78.9927 85.584L78.461 86.4309L78.9927 85.584ZM98.6727 85.584L99.2135 86.4252L99.2184 86.422L98.6727 85.584ZM105.009 78L105.92 78.4111L105.009 78ZM123.633 66.384H122.633C122.633 73.4774 121.19 79.7127 118.333 85.1166L119.217 85.584L120.101 86.0514C123.132 80.3193 124.633 73.7546 124.633 66.384H123.633ZM119.217 85.584L118.335 85.1124C115.475 90.4599 111.505 94.6447 106.416 97.6856L106.929 98.544L107.442 99.4024C112.849 96.1713 117.071 91.7161 120.099 86.0556L119.217 85.584ZM106.929 98.544L106.424 97.681C101.349 100.652 95.4479 102.152 88.6887 102.152V103.152V104.152C95.7536 104.152 102.013 102.58 107.434 99.407L106.929 98.544ZM88.6887 103.152V102.152C81.9954 102.152 76.1261 100.652 71.0499 97.681L70.5447 98.544L70.0395 99.407C75.4594 102.58 81.686 104.152 88.6887 104.152V103.152ZM70.5447 98.544L71.0623 97.6884C66.0368 94.6482 62.0965 90.463 59.2345 85.1124L58.3527 85.584L57.4709 86.0556C60.497 91.713 64.6847 96.1678 70.0271 99.3996L70.5447 98.544ZM58.3527 85.584L59.2388 85.1204C56.445 79.7813 55.0327 73.5771 55.0327 66.48H54.0327H53.0327C53.0327 73.8469 54.5004 80.3787 57.4667 86.0476L58.3527 85.584ZM54.0327 66.48H55.0327C55.0327 59.3863 56.4756 53.1851 59.3305 47.8477L58.4487 47.376L57.5669 46.9043C54.5338 52.5749 53.0327 59.1097 53.0327 66.48H54.0327ZM58.4487 47.376L59.3328 47.8434C62.1947 42.4306 66.1324 38.25 71.1505 35.2763L70.6407 34.416L70.1309 33.5557C64.781 36.726 60.5908 41.1854 57.5647 46.9086L58.4487 47.376ZM70.6407 34.416L71.1537 35.2744C76.2286 32.2419 82.0951 30.712 88.7847 30.712V29.712V28.712C81.7783 28.712 75.5489 30.3181 70.1278 33.5576L70.6407 34.416ZM88.7847 29.712V30.712C95.5405 30.712 101.404 32.2428 106.411 35.2716L106.929 34.416L107.446 33.5604C102.085 30.3172 95.853 28.712 88.7847 28.712V29.712ZM106.929 34.416L106.424 35.279C111.508 38.2552 115.476 42.4058 118.335 47.7516L119.217 47.28L120.099 46.8083C117.07 41.1462 112.846 36.7208 107.434 33.553L106.929 34.416ZM119.217 47.28L118.335 47.7516C121.19 53.0891 122.633 59.2903 122.633 66.384H123.633H124.633C124.633 59.0137 123.132 52.4789 120.099 46.8083L119.217 47.28ZM107.217 66.384H108.217C108.217 61.736 107.464 57.7134 105.917 54.3501L105.009 54.768L104.1 55.1859C105.497 58.2226 106.217 61.944 106.217 66.384H107.217ZM105.009 54.768L105.92 54.3569C104.376 50.9324 102.14 48.2764 99.2045 46.4331L98.6727 47.28L98.141 48.1269C100.709 49.7396 102.698 52.0756 104.097 55.1791L105.009 54.768ZM98.6727 47.28L99.2135 46.4388C96.3342 44.5878 92.8734 43.688 88.8807 43.688V44.688V45.688C92.5681 45.688 95.6353 46.5162 98.132 48.1212L98.6727 47.28ZM88.8807 44.688V43.688C84.8872 43.688 81.3993 44.5881 78.461 46.4331L78.9927 47.28L79.5245 48.1269C82.0902 46.5159 85.1942 45.688 88.8807 45.688V44.688ZM78.9927 47.28L78.461 46.4331C75.5254 48.2764 73.2895 50.9324 71.7451 54.3569L72.6567 54.768L73.5683 55.1791C74.9679 52.0756 76.9561 49.7396 79.5245 48.1269L78.9927 47.28ZM72.6567 54.768L71.7482 54.3501C70.2011 57.7134 69.4487 61.736 69.4487 66.384H70.4487H71.4487C71.4487 61.944 72.1683 58.2226 73.5652 55.1859L72.6567 54.768ZM70.4487 66.384H69.4487C69.4487 71.0329 70.2014 75.0841 71.7451 78.5071L72.6567 78.096L73.5683 77.6849C72.168 74.5799 71.4487 70.8231 71.4487 66.384H70.4487ZM72.6567 78.096L71.7451 78.5071C73.2895 81.9316 75.5254 84.5876 78.461 86.4309L78.9927 85.584L79.5245 84.7371C76.9561 83.1244 74.9679 80.7884 73.5683 77.6849L72.6567 78.096ZM78.9927 85.584L78.461 86.4309C81.3993 88.2759 84.8872 89.176 88.8807 89.176V88.176V87.176C85.1942 87.176 82.0902 86.3481 79.5245 84.7371L78.9927 85.584ZM88.8807 88.176V89.176C92.8734 89.176 96.3342 88.2762 99.2135 86.4252L98.6727 85.584L98.132 84.7428C95.6353 86.3478 92.5681 87.176 88.8807 87.176V88.176ZM98.6727 85.584L99.2184 86.422C102.145 84.5162 104.377 81.8331 105.92 78.4111L105.009 78L104.097 77.5889C102.696 80.6949 100.704 83.0678 98.1271 84.746L98.6727 85.584ZM105.009 78L105.92 78.4111C107.463 74.9897 108.217 70.9712 108.217 66.384H107.217H106.217C106.217 70.7568 105.498 74.4823 104.097 77.5889L105.009 78ZM155.685 47.28L156.226 48.1206L156.233 48.1164L156.239 48.112L155.685 47.28ZM149.157 55.152L148.239 54.7539L149.157 55.152ZM156.261 86.256L155.775 87.1302L155.787 87.1365L155.798 87.1426L156.261 86.256ZM174.501 87.312L174.153 86.3746L174.501 87.312ZM179.877 83.856L179.154 83.1648L179.146 83.1732L179.138 83.1817L179.877 83.856ZM182.949 78.864L182.014 78.5093L182.008 78.5236L182.003 78.538L182.949 78.864ZM184.005 67.44L184.712 66.7329L183.005 65.0258V67.44H184.005ZM191.397 74.832V75.832H193.811L192.104 74.1249L191.397 74.832ZM165.093 74.832H164.093V75.832H165.093V74.832ZM165.093 61.2V60.2H164.093V61.2H165.093ZM198.501 61.2H199.501V60.2H198.501V61.2ZM198.501 102V103H199.501V102H198.501ZM185.157 102L184.165 102.128L184.277 103H185.157V102ZM183.909 92.304L184.549 91.5358L182.592 89.9047L182.917 92.4317L183.909 92.304ZM185.637 93.744L186.512 94.2271L186.911 93.5043L186.277 92.9758L185.637 93.744ZM180.837 98.64L180.293 97.8004L180.282 97.808L180.837 98.64ZM173.349 101.904L173.091 100.938L173.086 100.939L173.349 101.904ZM146.757 98.544L146.237 99.3986L146.244 99.4025L146.25 99.4062L146.757 98.544ZM134.853 85.776L135.737 85.3081L134.853 85.776ZM135.045 47.664L135.922 48.1436L135.925 48.1393L135.045 47.664ZM147.717 34.608L148.216 35.4744L148.224 35.4699L147.717 34.608ZM182.181 32.976L181.759 33.8828L181.767 33.8864L181.775 33.8898L182.181 32.976ZM193.413 41.808L192.613 42.408L192.618 42.4144L193.413 41.808ZM198.501 55.152V56.152H199.606L199.496 55.0525L198.501 55.152ZM182.181 55.152L181.208 55.3829L181.39 56.152H182.181V55.152ZM176.421 46.992L175.915 47.8544L175.922 47.8585L175.929 47.8626L176.421 46.992ZM166.437 44.4V43.4C161.999 43.4 158.21 44.3948 155.13 46.4479L155.685 47.28L156.239 48.112C158.92 46.3252 162.299 45.4 166.437 45.4V44.4ZM155.685 47.28L155.143 46.4394C152.084 48.4111 149.784 51.1956 148.239 54.7539L149.157 55.152L150.074 55.5501C151.474 52.3244 153.526 49.8609 156.226 48.1206L155.685 47.28ZM149.157 55.152L148.239 54.7539C146.701 58.2984 145.949 62.4397 145.949 67.152H146.949H147.949C147.949 62.6483 148.668 58.7896 150.074 55.5501L149.157 55.152ZM146.949 67.152H145.949C145.949 72.0001 146.8 76.1373 148.558 79.5173L149.445 79.056L150.332 78.5947C148.762 75.5747 147.949 71.7759 147.949 67.152H146.949ZM149.445 79.056L148.558 79.5173C150.303 82.8742 152.707 85.4259 155.775 87.1302L156.261 86.256L156.746 85.3818C154.054 83.8861 151.914 81.6378 150.332 78.5947L149.445 79.056ZM156.261 86.256L155.798 87.1426C158.903 88.7628 162.426 89.56 166.341 89.56V88.56V87.56C162.704 87.56 159.506 86.8212 156.723 85.3694L156.261 86.256ZM166.341 88.56V89.56C169.622 89.56 172.467 89.1342 174.849 88.2494L174.501 87.312L174.153 86.3746C172.055 87.1538 169.46 87.56 166.341 87.56V88.56ZM174.501 87.312L174.849 88.2494C177.209 87.3729 179.145 86.141 180.615 84.5303L179.877 83.856L179.138 83.1817C177.921 84.515 176.273 85.5871 174.153 86.3746L174.501 87.312ZM179.877 83.856L180.599 84.5472C182.103 82.975 183.205 81.1875 183.894 79.19L182.949 78.864L182.003 78.538C181.412 80.2525 180.466 81.793 179.154 83.1648L179.877 83.856ZM182.949 78.864L183.884 79.2187C184.631 77.2494 185.005 75.2092 185.005 73.104H184.005H183.005C183.005 74.9668 182.675 76.7666 182.014 78.5093L182.949 78.864ZM184.005 73.104H185.005V67.44H184.005H183.005V73.104H184.005ZM184.005 67.44L183.298 68.1471L190.69 75.5391L191.397 74.832L192.104 74.1249L184.712 66.7329L184.005 67.44ZM191.397 74.832V73.832H165.093V74.832V75.832H191.397V74.832ZM165.093 74.832H166.093V61.2H165.093H164.093V74.832H165.093ZM165.093 61.2V62.2H198.501V61.2V60.2H165.093V61.2ZM198.501 61.2H197.501V102H198.501H199.501V61.2H198.501ZM198.501 102V101H185.157V102V103H198.501V102ZM185.157 102L186.149 101.872L184.901 92.1763L183.909 92.304L182.917 92.4317L184.165 102.128L185.157 102ZM183.909 92.304L183.269 93.0722L184.997 94.5122L185.637 93.744L186.277 92.9758L184.549 91.5358L183.909 92.304ZM185.637 93.744L184.761 93.2609C183.833 94.9437 182.361 96.4623 180.293 97.8004L180.837 98.64L181.38 99.4796C183.664 98.0017 185.393 96.2563 186.512 94.2271L185.637 93.744ZM180.837 98.64L180.282 97.808C178.275 99.1458 175.883 100.193 173.091 100.938L173.349 101.904L173.606 102.87C176.574 102.079 179.174 100.95 181.391 99.4721L180.837 98.64ZM173.349 101.904L173.086 100.939C170.363 101.682 167.444 102.056 164.325 102.056V103.056V104.056C167.605 104.056 170.702 103.662 173.612 102.869L173.349 101.904ZM164.325 103.056V102.056C157.891 102.056 152.213 100.59 147.263 97.6818L146.757 98.544L146.25 99.4062C151.54 102.514 157.575 104.056 164.325 104.056V103.056ZM146.757 98.544L147.276 97.6894C142.381 94.7149 138.536 90.5954 135.737 85.3081L134.853 85.776L133.969 86.2439C136.93 91.8366 141.021 96.2291 146.237 99.3986L146.757 98.544ZM134.853 85.776L135.737 85.3081C132.946 80.0367 131.533 73.8351 131.533 66.672H130.533H129.533C129.533 74.1009 131 80.6353 133.969 86.2439L134.853 85.776ZM130.533 66.672H131.533C131.533 59.6474 133.005 53.4806 135.922 48.1436L135.045 47.664L134.167 47.1844C131.068 52.8554 129.533 59.3606 129.533 66.672H130.533ZM135.045 47.664L135.925 48.1393C138.845 42.733 142.938 38.517 148.216 35.4744L147.717 34.608L147.217 33.7416C141.615 36.971 137.26 41.459 134.165 47.1887L135.045 47.664ZM147.717 34.608L148.224 35.4699C153.487 32.3736 159.675 30.808 166.821 30.808V29.808V28.808C159.375 28.808 152.826 30.4424 147.21 33.7461L147.717 34.608ZM166.821 29.808V30.808C172.391 30.808 177.364 31.8401 181.759 33.8828L182.181 32.976L182.602 32.0692C177.909 29.8879 172.642 28.808 166.821 28.808V29.808ZM182.181 32.976L181.775 33.8898C186.235 35.8721 189.84 38.7115 192.613 42.408L193.413 41.808L194.213 41.208C191.225 37.2245 187.343 34.1758 182.587 32.0622L182.181 32.976ZM193.413 41.808L192.618 42.4144C195.376 46.031 197.011 50.2998 197.506 55.2515L198.501 55.152L199.496 55.0525C198.967 49.7642 197.209 45.137 194.208 41.2015L193.413 41.808ZM198.501 55.152V54.152H182.181V55.152V56.152H198.501V55.152ZM182.181 55.152L183.154 54.9211C182.204 50.9182 180.136 47.9432 176.913 46.1214L176.421 46.992L175.929 47.8626C178.594 49.3688 180.366 51.8338 181.208 55.3829L182.181 55.152ZM176.421 46.992L176.927 46.1296C173.816 44.3037 170.311 43.4 166.437 43.4V44.4V45.4C169.987 45.4 173.137 46.2243 175.915 47.8544L176.421 46.992ZM226.896 30.96H227.896V29.96H226.896V30.96ZM226.896 102V103H227.896V102H226.896ZM211.344 102H210.344V103H211.344V102ZM211.344 30.96V29.96H210.344V30.96H211.344ZM226.896 30.96H225.896V102H226.896H227.896V30.96H226.896ZM226.896 102V101H211.344V102V103H226.896V102ZM211.344 102H212.344V30.96H211.344H210.344V102H211.344ZM211.344 30.96V31.96H226.896V30.96V29.96H211.344V30.96ZM257.079 102V103H258.079V102H257.079ZM241.719 102H240.719V103H241.719V102ZM241.719 30.96V29.96H240.719V30.96H241.719ZM257.079 30.96L257.912 30.4074L257.616 29.96H257.079V30.96ZM291.831 83.376V84.376H293.694L292.664 82.8234L291.831 83.376ZM287.031 83.376H286.031V84.376H287.031V83.376ZM287.031 30.96V29.96H286.031V30.96H287.031ZM302.391 30.96H303.391V29.96H302.391V30.96ZM302.391 102V103H303.391V102H302.391ZM287.031 102L286.198 102.553L286.494 103H287.031V102ZM252.279 49.68V48.68H250.414L251.446 50.2333L252.279 49.68ZM257.079 49.68H258.079V48.68H257.079V49.68ZM257.079 102V101H241.719V102V103H257.079V102ZM241.719 102H242.719V30.96H241.719H240.719V102H241.719ZM241.719 30.96V31.96H257.079V30.96V29.96H241.719V30.96ZM257.079 30.96L256.245 31.5126L290.997 83.9286L291.831 83.376L292.664 82.8234L257.912 30.4074L257.079 30.96ZM291.831 83.376V82.376H287.031V83.376V84.376H291.831V83.376ZM287.031 83.376H288.031V30.96H287.031H286.031V83.376H287.031ZM287.031 30.96V31.96H302.391V30.96V29.96H287.031V30.96ZM302.391 30.96H301.391V102H302.391H303.391V30.96H302.391ZM302.391 102V101H287.031V102V103H302.391V102ZM287.031 102L287.864 101.447L253.112 49.1267L252.279 49.68L251.446 50.2333L286.198 102.553L287.031 102ZM252.279 49.68V50.68H257.079V49.68V48.68H252.279V49.68ZM257.079 49.68H256.079V102H257.079H258.079V49.68H257.079Z" fill="white" mask="url(#path-1-outside-1_883_12)"/>
</g>
<defs>
<filter id="filter0_gn_883_12" x="0" y="21.7119" width="310.391" height="89.4404" filterUnits="userSpaceOnUse" color-interpolation-filters="sRGB">
<feFlood flood-opacity="0" result="BackgroundImageFix"/>
<feBlend mode="normal" in="SourceGraphic" in2="BackgroundImageFix" result="shape"/>
<feTurbulence type="fractalNoise" baseFrequency="0.20000000298023224 0.20000000298023224" numOctaves="3" seed="4007" />
<feDisplacementMap in="shape" scale="14" xChannelSelector="R" yChannelSelector="G" result="displacedImage" width="100%" height="100%" />
<feMerge result="effect1_texture_883_12">
<feMergeNode in="displacedImage"/>
</feMerge>
<feTurbulence type="fractalNoise" baseFrequency="1 1" stitchTiles="stitch" numOctaves="3" result="noise" seed="1394" />
<feColorMatrix in="noise" type="luminanceToAlpha" result="alphaNoise" />
<feComponentTransfer in="alphaNoise" result="coloredNoise1">
<feFuncA type="discrete" tableValues="1 1 1 1 1 1 1 1 1 1 1 1 1 1 1 1 1 1 1 1 1 1 1 1 1 1 1 1 1 1 1 1 1 1 1 1 1 1 1 1 1 1 1 1 1 1 1 1 1 1 1 0 0 0 0 0 0 0 0 0 0 0 0 0 0 0 0 0 0 0 0 0 0 0 0 0 0 0 0 0 0 0 0 0 0 0 0 0 0 0 0 0 0 0 0 0 0 0 0 0 "/>
</feComponentTransfer>
<feComposite operator="in" in2="effect1_texture_883_12" in="coloredNoise1" result="noise1Clipped" />
<feFlood flood-color="rgba(0, 0, 0, 0.25)" result="color1Flood" />
<feComposite operator="in" in2="noise1Clipped" in="color1Flood" result="color1" />
<feMerge result="effect2_noise_883_12">
<feMergeNode in="effect1_texture_883_12" />
<feMergeNode in="color1" />
</feMerge>
</filter>
</defs>
</svg>
