<svg width="533" height="126" viewBox="0 0 533 126" fill="none" xmlns="http://www.w3.org/2000/svg">
<g filter="url(#filter0_g_883_17)">
<path d="M18.912 13.432V25H17.344V13.432H18.912ZM21.84 20.872H18.56V19.464H21.504C22.2827 19.464 22.88 19.256 23.296 18.84C23.712 18.4133 23.92 17.8427 23.92 17.128C23.92 16.4027 23.712 15.8427 23.296 15.448C22.88 15.0427 22.304 14.84 21.568 14.84H18.208V13.432H21.84C22.5973 13.432 23.2533 13.5867 23.808 13.896C24.3627 14.2053 24.7947 14.6373 25.104 15.192C25.4133 15.7467 25.568 16.3973 25.568 17.144C25.568 17.8587 25.4133 18.4987 25.104 19.064C24.7947 19.6293 24.3627 20.072 23.808 20.392C23.2533 20.712 22.5973 20.872 21.84 20.872ZM27.2771 25H25.6451L29.8691 13.432H31.6131L35.8531 25H34.2051L33.1651 22.12H28.3011L27.2771 25ZM30.5411 15.928L28.7811 20.76H32.7011L30.9251 15.928C30.8931 15.8107 30.8558 15.6933 30.8131 15.576C30.7705 15.448 30.7438 15.3413 30.7331 15.256C30.7118 15.3413 30.6851 15.448 30.6531 15.576C30.6211 15.6933 30.5838 15.8107 30.5411 15.928ZM36.7189 16.552C36.7189 15.8907 36.8842 15.3093 37.2149 14.808C37.5455 14.3067 38.0095 13.9173 38.6069 13.64C39.2149 13.3627 39.9135 13.224 40.7029 13.224C41.4389 13.224 42.0789 13.3573 42.6229 13.624C43.1775 13.88 43.6095 14.248 43.9189 14.728C44.2389 15.208 44.4202 15.784 44.4629 16.456H42.8789C42.8362 15.88 42.6229 15.432 42.2389 15.112C41.8549 14.792 41.3375 14.632 40.6869 14.632C39.9615 14.632 39.3802 14.8027 38.9429 15.144C38.5055 15.4747 38.2869 15.928 38.2869 16.504C38.2869 16.9733 38.4202 17.352 38.6869 17.64C38.9535 17.9173 39.3589 18.12 39.9029 18.248L41.8069 18.696C42.7562 18.9093 43.4655 19.2773 43.9349 19.8C44.4149 20.312 44.6549 20.9733 44.6549 21.784C44.6549 22.4773 44.4842 23.08 44.1429 23.592C43.8122 24.104 43.3375 24.4987 42.7189 24.776C42.1109 25.0533 41.3962 25.192 40.5749 25.192C39.7962 25.192 39.1082 25.064 38.5109 24.808C37.9242 24.5413 37.4602 24.168 37.1189 23.688C36.7882 23.1973 36.6015 22.6267 36.5589 21.976H38.1589C38.1695 22.5307 38.3935 22.9733 38.8309 23.304C39.2682 23.624 39.8495 23.784 40.5749 23.784C41.3429 23.784 41.9509 23.6133 42.3989 23.272C42.8575 22.9307 43.0869 22.4773 43.0869 21.912C43.0869 21.4533 42.9589 21.08 42.7029 20.792C42.4469 20.504 42.0415 20.296 41.4869 20.168L39.5829 19.736C38.6442 19.5227 37.9295 19.1493 37.4389 18.616C36.9589 18.072 36.7189 17.384 36.7189 16.552ZM46.0158 16.552C46.0158 15.8907 46.1811 15.3093 46.5118 14.808C46.8424 14.3067 47.3064 13.9173 47.9038 13.64C48.5118 13.3627 49.2104 13.224 49.9998 13.224C50.7358 13.224 51.3758 13.3573 51.9198 13.624C52.4744 13.88 52.9064 14.248 53.2158 14.728C53.5358 15.208 53.7171 15.784 53.7598 16.456H52.1758C52.1331 15.88 51.9198 15.432 51.5358 15.112C51.1518 14.792 50.6344 14.632 49.9838 14.632C49.2584 14.632 48.6771 14.8027 48.2398 15.144C47.8024 15.4747 47.5838 15.928 47.5838 16.504C47.5838 16.9733 47.7171 17.352 47.9838 17.64C48.2504 17.9173 48.6558 18.12 49.1998 18.248L51.1038 18.696C52.0531 18.9093 52.7624 19.2773 53.2318 19.8C53.7118 20.312 53.9518 20.9733 53.9518 21.784C53.9518 22.4773 53.7811 23.08 53.4398 23.592C53.1091 24.104 52.6344 24.4987 52.0158 24.776C51.4078 25.0533 50.6931 25.192 49.8718 25.192C49.0931 25.192 48.4051 25.064 47.8078 24.808C47.2211 24.5413 46.7571 24.168 46.4158 23.688C46.0851 23.1973 45.8984 22.6267 45.8558 21.976H47.4557C47.4664 22.5307 47.6904 22.9733 48.1278 23.304C48.5651 23.624 49.1464 23.784 49.8718 23.784C50.6398 23.784 51.2478 23.6133 51.6958 23.272C52.1544 22.9307 52.3838 22.4773 52.3838 21.912C52.3838 21.4533 52.2558 21.08 51.9998 20.792C51.7438 20.504 51.3384 20.296 50.7838 20.168L48.8798 19.736C47.9411 19.5227 47.2264 19.1493 46.7358 18.616C46.2558 18.072 46.0158 17.384 46.0158 16.552ZM58.1019 25L54.6619 13.432H56.2939L58.4059 20.504C58.4912 20.8027 58.5712 21.1173 58.6459 21.448C58.7205 21.7787 58.8005 22.1627 58.8859 22.6C58.9819 22.1307 59.0725 21.7413 59.1579 21.432C59.2539 21.1227 59.3445 20.8133 59.4299 20.504L61.6219 13.432H63.3179L65.4939 20.504C65.5899 20.8133 65.6805 21.1333 65.7659 21.464C65.8512 21.7947 65.9365 22.1733 66.0219 22.6C66.1285 22.1093 66.2192 21.704 66.2939 21.384C66.3792 21.064 66.4592 20.776 66.5339 20.52L68.6619 13.432H70.2619L66.7739 25H65.2699L62.4699 15.848L59.6379 25H58.1019ZM81.8854 19.208C81.8854 20.3813 81.6454 21.4213 81.1654 22.328C80.696 23.224 80.04 23.928 79.1974 24.44C78.3654 24.9413 77.4 25.192 76.3014 25.192C75.224 25.192 74.264 24.9413 73.4214 24.44C72.5894 23.928 71.9387 23.224 71.4694 22.328C71 21.432 70.7654 20.392 70.7654 19.208C70.7654 18.0347 71 17 71.4694 16.104C71.9494 15.208 72.6054 14.504 73.4374 13.992C74.2694 13.48 75.2294 13.224 76.3174 13.224C77.416 13.224 78.3814 13.48 79.2134 13.992C80.0454 14.504 80.696 15.208 81.1654 16.104C81.6454 17 81.8854 18.0347 81.8854 19.208ZM80.2374 19.208C80.2374 18.312 80.072 17.528 79.7414 16.856C79.4214 16.184 78.968 15.6667 78.3814 15.304C77.7947 14.9307 77.1067 14.744 76.3174 14.744C75.5387 14.744 74.856 14.9307 74.2694 15.304C73.6827 15.6667 73.224 16.184 72.8934 16.856C72.5734 17.528 72.4134 18.312 72.4134 19.208C72.4134 20.104 72.5734 20.888 72.8934 21.56C73.224 22.232 73.6827 22.7547 74.2694 23.128C74.856 23.5013 75.5387 23.688 76.3174 23.688C77.1067 23.688 77.7947 23.5013 78.3814 23.128C78.968 22.744 79.4214 22.216 79.7414 21.544C80.072 20.872 80.2374 20.0933 80.2374 19.208ZM85.4589 25H83.8909V13.432H88.2589C89.4962 13.432 90.4615 13.7413 91.1549 14.36C91.8589 14.968 92.2109 15.816 92.2109 16.904C92.2109 17.704 92.0135 18.3813 91.6189 18.936C91.2349 19.4907 90.6855 19.8853 89.9709 20.12L92.3229 25H90.5789L88.4189 20.424H85.4589V25ZM85.4589 14.84V19.032H88.2749C89.0002 19.032 89.5602 18.8453 89.9549 18.472C90.3602 18.0987 90.5629 17.5813 90.5629 16.92C90.5629 16.248 90.3549 15.736 89.9389 15.384C89.5335 15.0213 88.9735 14.84 88.2589 14.84H85.4589ZM98.1836 25H94.3596V13.432H98.1196C99.2716 13.432 100.28 13.6773 101.144 14.168C102.018 14.648 102.696 15.3253 103.176 16.2C103.666 17.064 103.912 18.072 103.912 19.224C103.912 20.3653 103.672 21.3733 103.192 22.248C102.712 23.112 102.04 23.7893 101.176 24.28C100.322 24.76 99.325 25 98.1836 25ZM95.9276 14.168V24.28L95.1916 23.544H98.0716C98.9356 23.544 99.677 23.368 100.296 23.016C100.925 22.664 101.41 22.168 101.752 21.528C102.104 20.8773 102.28 20.1093 102.28 19.224C102.28 18.328 102.104 17.5547 101.752 16.904C101.41 16.2533 100.92 15.752 100.28 15.4C99.6503 15.048 98.893 14.872 98.0076 14.872H95.1916L95.9276 14.168Z" fill="white"/>
</g>
<g filter="url(#filter1_n_883_17)">
<rect y="40" width="533" height="86" rx="30" fill="black"/>
<rect x="0.625" y="40.625" width="531.75" height="84.75" rx="29.375" stroke="white" stroke-width="1.25"/>
</g>
<defs>
<filter id="filter0_g_883_17" x="15.344" y="11.2236" width="90.5676" height="15.9688" filterUnits="userSpaceOnUse" color-interpolation-filters="sRGB">
<feFlood flood-opacity="0" result="BackgroundImageFix"/>
<feBlend mode="normal" in="SourceGraphic" in2="BackgroundImageFix" result="shape"/>
<feTurbulence type="fractalNoise" baseFrequency="0.25 0.25" numOctaves="3" seed="731" />
<feDisplacementMap in="shape" scale="4" xChannelSelector="R" yChannelSelector="G" result="displacedImage" width="100%" height="100%" />
<feMerge result="effect1_texture_883_17">
<feMergeNode in="displacedImage"/>
</feMerge>
</filter>
<filter id="filter1_n_883_17" x="0" y="40" width="533" height="86" filterUnits="userSpaceOnUse" color-interpolation-filters="sRGB">
<feFlood flood-opacity="0" result="BackgroundImageFix"/>
<feBlend mode="normal" in="SourceGraphic" in2="BackgroundImageFix" result="shape"/>
<feTurbulence type="fractalNoise" baseFrequency="2 2" stitchTiles="stitch" numOctaves="3" result="noise" seed="8489" />
<feColorMatrix in="noise" type="luminanceToAlpha" result="alphaNoise" />
<feComponentTransfer in="alphaNoise" result="coloredNoise1">
<feFuncA type="discrete" tableValues="1 1 1 1 1 1 1 1 1 1 1 1 1 1 1 1 1 1 1 1 1 1 1 1 1 1 1 1 1 1 1 1 1 1 1 1 1 1 1 1 1 1 1 1 1 1 1 1 1 1 1 0 0 0 0 0 0 0 0 0 0 0 0 0 0 0 0 0 0 0 0 0 0 0 0 0 0 0 0 0 0 0 0 0 0 0 0 0 0 0 0 0 0 0 0 0 0 0 0 0 "/>
</feComponentTransfer>
<feComposite operator="in" in2="shape" in="coloredNoise1" result="noise1Clipped" />
<feFlood flood-color="#000000" result="color1Flood" />
<feComposite operator="in" in2="noise1Clipped" in="color1Flood" result="color1" />
<feMerge result="effect1_noise_883_17">
<feMergeNode in="shape" />
<feMergeNode in="color1" />
</feMerge>
</filter>
</defs>
</svg>
