<svg width="543" height="96" viewBox="0 0 543 96" fill="none" xmlns="http://www.w3.org/2000/svg">
<g filter="url(#filter0_gn_883_38)">
<rect x="5" y="5" width="532.927" height="85.6266" rx="30" fill="#B9B9B9"/>
</g>
<g filter="url(#filter1_g_883_38)">
<path d="M226.353 42.735C226.353 41.663 226.633 40.719 227.193 39.903C227.753 39.071 228.521 38.423 229.497 37.959C230.489 37.479 231.617 37.239 232.881 37.239C234.161 37.239 235.265 37.463 236.193 37.911C237.121 38.359 237.833 38.991 238.329 39.807C238.841 40.623 239.097 41.591 239.097 42.711H235.233C235.233 42.087 235.017 41.599 234.585 41.247C234.153 40.879 233.569 40.695 232.833 40.695C232.049 40.695 231.417 40.863 230.937 41.199C230.473 41.535 230.241 41.999 230.241 42.591C230.241 43.135 230.385 43.551 230.673 43.839C230.961 44.127 231.417 44.335 232.041 44.463L234.705 45.015C236.289 45.335 237.465 45.895 238.233 46.695C239.001 47.479 239.385 48.575 239.385 49.983C239.385 51.119 239.105 52.119 238.545 52.983C237.985 53.831 237.193 54.487 236.169 54.951C235.161 55.415 233.977 55.647 232.617 55.647C231.305 55.647 230.153 55.423 229.161 54.975C228.185 54.527 227.425 53.895 226.881 53.079C226.353 52.247 226.089 51.279 226.089 50.175H229.953C229.953 50.815 230.185 51.311 230.649 51.663C231.113 52.015 231.777 52.191 232.641 52.191C233.521 52.191 234.217 52.031 234.729 51.711C235.241 51.375 235.497 50.927 235.497 50.367C235.497 49.871 235.369 49.487 235.113 49.215C234.873 48.943 234.457 48.751 233.865 48.639L231.153 48.087C229.569 47.767 228.369 47.159 227.553 46.263C226.753 45.367 226.353 44.191 226.353 42.735ZM241.842 48.663V37.575H245.73V48.399C245.73 49.519 246.026 50.375 246.618 50.967C247.21 51.559 248.05 51.855 249.138 51.855C250.242 51.855 251.09 51.551 251.682 50.943C252.29 50.335 252.594 49.487 252.594 48.399V37.575H256.482V48.663C256.482 50.071 256.178 51.295 255.57 52.335C254.978 53.375 254.13 54.183 253.026 54.759C251.922 55.335 250.626 55.623 249.138 55.623C247.666 55.623 246.378 55.343 245.274 54.783C244.186 54.207 243.338 53.399 242.73 52.359C242.138 51.303 241.842 50.071 241.842 48.663ZM263.944 37.575V55.335H260.056V37.575H263.944ZM267.232 48.111H262.696V44.847H267.04C267.744 44.847 268.28 44.679 268.648 44.343C269.016 44.007 269.2 43.519 269.2 42.879C269.2 42.255 269.016 41.783 268.648 41.463C268.28 41.143 267.744 40.983 267.04 40.983H262.96V37.575H267.448C269.24 37.575 270.64 38.015 271.648 38.895C272.672 39.775 273.184 40.975 273.184 42.495C273.184 43.535 272.928 44.415 272.416 45.135C271.904 45.855 271.16 46.367 270.184 46.671V46.335C271.224 46.559 272.016 47.023 272.56 47.727C273.12 48.431 273.4 49.335 273.4 50.439C273.4 51.479 273.168 52.367 272.704 53.103C272.256 53.839 271.584 54.399 270.688 54.783C269.808 55.151 268.728 55.335 267.448 55.335H262.96V51.927H267.232C267.952 51.927 268.496 51.767 268.864 51.447C269.232 51.111 269.416 50.615 269.416 49.959C269.416 49.351 269.224 48.895 268.84 48.591C268.472 48.271 267.936 48.111 267.232 48.111ZM279.785 55.335H276.017V37.575H279.785L285.065 50.823L290.369 37.575H294.185V55.335H290.417V51.615C290.417 50.655 290.417 49.863 290.417 49.239C290.417 48.615 290.425 48.095 290.441 47.679C290.457 47.263 290.473 46.903 290.489 46.599C290.521 46.279 290.561 45.951 290.609 45.615L286.841 55.335H283.289L279.545 45.615C279.657 46.271 279.721 46.983 279.737 47.751C279.769 48.519 279.785 49.391 279.785 50.367V55.335ZM301.772 37.575V55.335H297.884V37.575H301.772ZM313.038 39.447V55.335H309.15V39.447H313.038ZM304.11 41.175V37.575H318.078V41.175H304.11Z" fill="black"/>
</g>
<defs>
<filter id="filter0_gn_883_38" x="0" y="0" width="542.927" height="95.627" filterUnits="userSpaceOnUse" color-interpolation-filters="sRGB">
<feFlood flood-opacity="0" result="BackgroundImageFix"/>
<feBlend mode="normal" in="SourceGraphic" in2="BackgroundImageFix" result="shape"/>
<feTurbulence type="fractalNoise" baseFrequency="0.25 0.25" numOctaves="3" seed="8586" />
<feDisplacementMap in="shape" scale="10" xChannelSelector="R" yChannelSelector="G" result="displacedImage" width="100%" height="100%" />
<feMerge result="effect1_texture_883_38">
<feMergeNode in="displacedImage"/>
</feMerge>
<feTurbulence type="fractalNoise" baseFrequency="1 1" stitchTiles="stitch" numOctaves="3" result="noise" seed="7354" />
<feColorMatrix in="noise" type="luminanceToAlpha" result="alphaNoise" />
<feComponentTransfer in="alphaNoise" result="coloredNoise1">
<feFuncA type="discrete" tableValues="1 1 1 1 1 1 1 1 1 1 1 1 1 1 1 1 1 1 1 1 1 1 1 1 1 1 1 1 1 1 1 1 1 1 1 1 1 1 1 1 1 1 1 1 1 1 1 1 1 1 1 0 0 0 0 0 0 0 0 0 0 0 0 0 0 0 0 0 0 0 0 0 0 0 0 0 0 0 0 0 0 0 0 0 0 0 0 0 0 0 0 0 0 0 0 0 0 0 0 0 "/>
</feComponentTransfer>
<feComposite operator="in" in2="effect1_texture_883_38" in="coloredNoise1" result="noise1Clipped" />
<feFlood flood-color="rgba(40, 39, 39, 0.25)" result="color1Flood" />
<feComposite operator="in" in2="noise1Clipped" in="color1Flood" result="color1" />
<feMerge result="effect2_noise_883_38">
<feMergeNode in="effect1_texture_883_38" />
<feMergeNode in="color1" />
</feMerge>
</filter>
<filter id="filter1_g_883_38" x="225.089" y="36.2393" width="93.9886" height="20.4072" filterUnits="userSpaceOnUse" color-interpolation-filters="sRGB">
<feFlood flood-opacity="0" result="BackgroundImageFix"/>
<feBlend mode="normal" in="SourceGraphic" in2="BackgroundImageFix" result="shape"/>
<feTurbulence type="fractalNoise" baseFrequency="1 1" numOctaves="3" seed="3358" />
<feDisplacementMap in="shape" scale="2" xChannelSelector="R" yChannelSelector="G" result="displacedImage" width="100%" height="100%" />
<feMerge result="effect1_texture_883_38">
<feMergeNode in="displacedImage"/>
</feMerge>
</filter>
</defs>
</svg>
