<svg width="533" height="125" viewBox="0 0 533 125" fill="none" xmlns="http://www.w3.org/2000/svg">
<g filter="url(#filter0_g_883_14)">
<path d="M18.2641 21.888V14.432H19.8321V21.792C19.8321 22.72 20.0774 23.4347 20.5681 23.936C21.0694 24.4267 21.7787 24.672 22.6961 24.672C23.6027 24.672 24.3014 24.4213 24.7921 23.92C25.2827 23.4187 25.5281 22.7093 25.5281 21.792V14.432H27.1121V21.888C27.1121 22.7733 26.9307 23.536 26.5681 24.176C26.2161 24.816 25.7094 25.312 25.0481 25.664C24.3867 26.016 23.6027 26.192 22.6961 26.192C21.7894 26.192 21.0001 26.0213 20.3281 25.68C19.6667 25.328 19.1547 24.832 18.7921 24.192C18.4401 23.5413 18.2641 22.7733 18.2641 21.888ZM29.0471 17.552C29.0471 16.8907 29.2124 16.3093 29.5431 15.808C29.8737 15.3067 30.3377 14.9173 30.9351 14.64C31.5431 14.3627 32.2417 14.224 33.0311 14.224C33.7671 14.224 34.4071 14.3573 34.9511 14.624C35.5057 14.88 35.9377 15.248 36.2471 15.728C36.5671 16.208 36.7484 16.784 36.7911 17.456H35.2071C35.1644 16.88 34.9511 16.432 34.5671 16.112C34.1831 15.792 33.6657 15.632 33.0151 15.632C32.2897 15.632 31.7084 15.8027 31.2711 16.144C30.8337 16.4747 30.6151 16.928 30.6151 17.504C30.6151 17.9733 30.7484 18.352 31.0151 18.64C31.2817 18.9173 31.6871 19.12 32.2311 19.248L34.1351 19.696C35.0844 19.9093 35.7937 20.2773 36.2631 20.8C36.7431 21.312 36.9831 21.9733 36.9831 22.784C36.9831 23.4773 36.8124 24.08 36.4711 24.592C36.1404 25.104 35.6657 25.4987 35.0471 25.776C34.4391 26.0533 33.7244 26.192 32.9031 26.192C32.1244 26.192 31.4364 26.064 30.8391 25.808C30.2524 25.5413 29.7884 25.168 29.4471 24.688C29.1164 24.1973 28.9297 23.6267 28.8871 22.976H30.4871C30.4977 23.5307 30.7217 23.9733 31.1591 24.304C31.5964 24.624 32.1777 24.784 32.9031 24.784C33.6711 24.784 34.2791 24.6133 34.7271 24.272C35.1857 23.9307 35.4151 23.4773 35.4151 22.912C35.4151 22.4533 35.2871 22.08 35.0311 21.792C34.7751 21.504 34.3697 21.296 33.8151 21.168L31.9111 20.736C30.9724 20.5227 30.2577 20.1493 29.7671 19.616C29.2871 19.072 29.0471 18.384 29.0471 17.552ZM46.0094 26H38.9534V14.432H46.0094V15.872H39.8014L40.5214 15.248V19.488H45.4654V20.88H40.5214V25.2L39.8014 24.544H46.0094V26ZM49.8496 26H48.2816V14.432H52.6496C53.8869 14.432 54.8522 14.7413 55.5456 15.36C56.2496 15.968 56.6016 16.816 56.6016 17.904C56.6016 18.704 56.4042 19.3813 56.0096 19.936C55.6256 20.4907 55.0762 20.8853 54.3616 21.12L56.7136 26H54.9696L52.8096 21.424H49.8496V26ZM49.8496 15.84V20.032H52.6656C53.3909 20.032 53.9509 19.8453 54.3456 19.472C54.7509 19.0987 54.9536 18.5813 54.9536 17.92C54.9536 17.248 54.7456 16.736 54.3296 16.384C53.9242 16.0213 53.3642 15.84 52.6496 15.84H49.8496ZM60.3183 26H58.7503V14.432H60.3183L66.6703 24.032H66.2383V14.432H67.8063V26H66.2383L59.8863 16.4H60.3183V26ZM70.9803 26H69.3483L73.5723 14.432H75.3163L79.5563 26H77.9083L76.8683 23.12H72.0043L70.9803 26ZM74.2443 16.928L72.4843 21.76H76.4043L74.6283 16.928C74.5963 16.8107 74.559 16.6933 74.5163 16.576C74.4736 16.448 74.447 16.3413 74.4363 16.256C74.415 16.3413 74.3883 16.448 74.3563 16.576C74.3243 16.6933 74.287 16.8107 74.2443 16.928ZM82.6301 26H81.0941V14.432H82.6301L86.6141 24.16L90.5981 14.432H92.1661V26H90.6301V21.424C90.6301 20.88 90.6301 20.416 90.6301 20.032C90.6301 19.648 90.6354 19.3173 90.6461 19.04C90.6567 18.7627 90.6674 18.5173 90.6781 18.304C90.6887 18.08 90.7047 17.8667 90.7261 17.664L87.3501 26H85.8781L82.5181 17.696C82.5607 17.9733 82.5874 18.4 82.5981 18.976C82.6194 19.552 82.6301 20.2453 82.6301 21.056V26ZM101.916 26H94.8597V14.432H101.916V15.872H95.7077L96.4277 15.248V19.488H101.372V20.88H96.4277V25.2L95.7077 24.544H101.916V26Z" fill="white"/>
</g>
<g filter="url(#filter1_n_883_14)">
<rect y="39" width="533" height="86" rx="30" fill="black"/>
<rect x="0.625" y="39.625" width="531.75" height="84.75" rx="29.375" stroke="white" stroke-width="1.25"/>
</g>
<defs>
<filter id="filter0_g_883_14" x="16.764" y="12.7236" width="86.6517" height="14.9688" filterUnits="userSpaceOnUse" color-interpolation-filters="sRGB">
<feFlood flood-opacity="0" result="BackgroundImageFix"/>
<feBlend mode="normal" in="SourceGraphic" in2="BackgroundImageFix" result="shape"/>
<feTurbulence type="fractalNoise" baseFrequency="0.25 0.25" numOctaves="3" seed="6038" />
<feDisplacementMap in="shape" scale="3" xChannelSelector="R" yChannelSelector="G" result="displacedImage" width="100%" height="100%" />
<feMerge result="effect1_texture_883_14">
<feMergeNode in="displacedImage"/>
</feMerge>
</filter>
<filter id="filter1_n_883_14" x="0" y="39" width="533" height="86" filterUnits="userSpaceOnUse" color-interpolation-filters="sRGB">
<feFlood flood-opacity="0" result="BackgroundImageFix"/>
<feBlend mode="normal" in="SourceGraphic" in2="BackgroundImageFix" result="shape"/>
<feTurbulence type="fractalNoise" baseFrequency="2 2" stitchTiles="stitch" numOctaves="3" result="noise" seed="8489" />
<feColorMatrix in="noise" type="luminanceToAlpha" result="alphaNoise" />
<feComponentTransfer in="alphaNoise" result="coloredNoise1">
<feFuncA type="discrete" tableValues="1 1 1 1 1 1 1 1 1 1 1 1 1 1 1 1 1 1 1 1 1 1 1 1 1 1 1 1 1 1 1 1 1 1 1 1 1 1 1 1 1 1 1 1 1 1 1 1 1 1 1 0 0 0 0 0 0 0 0 0 0 0 0 0 0 0 0 0 0 0 0 0 0 0 0 0 0 0 0 0 0 0 0 0 0 0 0 0 0 0 0 0 0 0 0 0 0 0 0 0 "/>
</feComponentTransfer>
<feComposite operator="in" in2="shape" in="coloredNoise1" result="noise1Clipped" />
<feFlood flood-color="#000000" result="color1Flood" />
<feComposite operator="in" in2="noise1Clipped" in="color1Flood" result="color1" />
<feMerge result="effect1_noise_883_14">
<feMergeNode in="shape" />
<feMergeNode in="color1" />
</feMerge>
</filter>
</defs>
</svg>
